<mxfile host="app.diagrams.net" agent="Mozilla/5.0 (Windows NT 10.0; Win64; x64) AppleWebKit/537.36 (KHTML, like Gecko) Chrome/131.0.0.0 Safari/537.36 Edg/131.0.0.0" version="24.8.6">
  <diagram name="Page-1" id="4LIk3HayLe8pGUy_QFxr">
    <mxGraphModel dx="1603" dy="817" grid="1" gridSize="10" guides="1" tooltips="1" connect="1" arrows="1" fold="1" page="1" pageScale="1" pageWidth="850" pageHeight="1100" math="0" shadow="0">
      <root>
        <mxCell id="0" />
        <mxCell id="1" parent="0" />
        <mxCell id="ZDsWqtvo9uj6QIfNB-ct-1" value="&lt;p style=&quot;margin: 4px 0px 0px; text-align: center;&quot;&gt;&lt;b style=&quot;&quot;&gt;1.0&lt;/b&gt;&lt;/p&gt;&lt;hr size=&quot;1&quot; style=&quot;border-style:solid;&quot;&gt;&lt;p style=&quot;margin:0px;margin-left:8px;&quot;&gt;Register:Form&lt;/p&gt;&lt;p style=&quot;margin:0px;margin-left:8px;&quot;&gt;&lt;br&gt;&lt;/p&gt;" style="verticalAlign=top;align=left;overflow=fill;html=1;whiteSpace=wrap;rounded=1;" vertex="1" parent="1">
          <mxGeometry x="360" y="40" width="160" height="90" as="geometry" />
        </mxCell>
        <mxCell id="ZDsWqtvo9uj6QIfNB-ct-2" value="&lt;p style=&quot;margin: 4px 0px 0px; text-align: center;&quot;&gt;&lt;b style=&quot;&quot;&gt;2.0&lt;/b&gt;&lt;/p&gt;&lt;hr size=&quot;1&quot; style=&quot;border-style:solid;&quot;&gt;&lt;p style=&quot;margin:0px;margin-left:8px;&quot;&gt;Login&lt;/p&gt;&lt;p style=&quot;margin:0px;margin-left:8px;&quot;&gt;&lt;br&gt;&lt;/p&gt;" style="verticalAlign=top;align=left;overflow=fill;html=1;whiteSpace=wrap;rounded=1;" vertex="1" parent="1">
          <mxGeometry x="360" y="200" width="160" height="70" as="geometry" />
        </mxCell>
        <mxCell id="ZDsWqtvo9uj6QIfNB-ct-3" value="&lt;p style=&quot;margin: 4px 0px 0px; text-align: center;&quot;&gt;&lt;b&gt;3.0&lt;/b&gt;&lt;/p&gt;&lt;hr size=&quot;1&quot; style=&quot;border-style:solid;&quot;&gt;&lt;p style=&quot;margin:0px;margin-left:8px;&quot;&gt;View Rooms&lt;/p&gt;&lt;p style=&quot;margin:0px;margin-left:8px;&quot;&gt;&lt;br&gt;&lt;/p&gt;" style="verticalAlign=top;align=left;overflow=fill;html=1;whiteSpace=wrap;rounded=1;" vertex="1" parent="1">
          <mxGeometry x="360" y="330" width="160" height="70" as="geometry" />
        </mxCell>
        <mxCell id="ZDsWqtvo9uj6QIfNB-ct-4" value="&lt;p style=&quot;margin: 4px 0px 0px; text-align: center;&quot;&gt;&lt;b style=&quot;&quot;&gt;4.0&lt;/b&gt;&lt;/p&gt;&lt;hr size=&quot;1&quot; style=&quot;border-style:solid;&quot;&gt;&lt;p style=&quot;margin:0px;margin-left:8px;&quot;&gt;Search Rooms&lt;/p&gt;&lt;p style=&quot;margin:0px;margin-left:8px;&quot;&gt;&lt;br&gt;&lt;/p&gt;" style="verticalAlign=top;align=left;overflow=fill;html=1;whiteSpace=wrap;rounded=1;" vertex="1" parent="1">
          <mxGeometry x="360" y="450" width="160" height="70" as="geometry" />
        </mxCell>
        <mxCell id="ZDsWqtvo9uj6QIfNB-ct-5" value="&lt;p style=&quot;margin: 4px 0px 0px; text-align: center;&quot;&gt;&lt;b style=&quot;&quot;&gt;5.0&lt;/b&gt;&lt;/p&gt;&lt;hr size=&quot;1&quot; style=&quot;border-style:solid;&quot;&gt;&lt;p style=&quot;margin:0px;margin-left:8px;&quot;&gt;Book Rooms&lt;/p&gt;&lt;p style=&quot;margin:0px;margin-left:8px;&quot;&gt;&lt;br&gt;&lt;/p&gt;" style="verticalAlign=top;align=left;overflow=fill;html=1;whiteSpace=wrap;rounded=1;" vertex="1" parent="1">
          <mxGeometry x="360" y="570" width="160" height="110" as="geometry" />
        </mxCell>
        <mxCell id="ZDsWqtvo9uj6QIfNB-ct-6" value="Admin" style="html=1;whiteSpace=wrap;" vertex="1" parent="1">
          <mxGeometry x="680" y="570" width="110" height="100" as="geometry" />
        </mxCell>
        <mxCell id="ZDsWqtvo9uj6QIfNB-ct-7" value="User Data" style="text;html=1;align=center;verticalAlign=middle;whiteSpace=wrap;rounded=0;" vertex="1" parent="1">
          <mxGeometry x="240" y="40" width="60" height="30" as="geometry" />
        </mxCell>
        <mxCell id="ZDsWqtvo9uj6QIfNB-ct-8" value="User Ceredentials" style="text;html=1;align=center;verticalAlign=middle;whiteSpace=wrap;rounded=0;" vertex="1" parent="1">
          <mxGeometry x="250" y="210" width="60" height="30" as="geometry" />
        </mxCell>
        <mxCell id="ZDsWqtvo9uj6QIfNB-ct-9" value="Valdation" style="text;html=1;align=center;verticalAlign=middle;whiteSpace=wrap;rounded=0;" vertex="1" parent="1">
          <mxGeometry x="550" y="200" width="60" height="30" as="geometry" />
        </mxCell>
        <mxCell id="ZDsWqtvo9uj6QIfNB-ct-10" value="Show Details" style="text;html=1;align=center;verticalAlign=middle;whiteSpace=wrap;rounded=0;" vertex="1" parent="1">
          <mxGeometry x="560" y="575" width="60" height="30" as="geometry" />
        </mxCell>
        <mxCell id="ZDsWqtvo9uj6QIfNB-ct-11" value="" style="endArrow=classic;html=1;rounded=0;exitX=1;exitY=0.301;exitDx=0;exitDy=0;exitPerimeter=0;" edge="1" parent="1" source="ZDsWqtvo9uj6QIfNB-ct-5">
          <mxGeometry width="50" height="50" relative="1" as="geometry">
            <mxPoint x="521" y="603" as="sourcePoint" />
            <mxPoint x="680" y="600" as="targetPoint" />
          </mxGeometry>
        </mxCell>
        <mxCell id="ZDsWqtvo9uj6QIfNB-ct-12" value="Manages Bookings" style="text;html=1;align=center;verticalAlign=middle;whiteSpace=wrap;rounded=0;" vertex="1" parent="1">
          <mxGeometry x="570" y="620" width="60" height="30" as="geometry" />
        </mxCell>
        <mxCell id="ZDsWqtvo9uj6QIfNB-ct-13" value="Manages Users" style="text;html=1;align=center;verticalAlign=middle;whiteSpace=wrap;rounded=0;" vertex="1" parent="1">
          <mxGeometry x="560" y="660" width="60" height="30" as="geometry" />
        </mxCell>
        <mxCell id="ZDsWqtvo9uj6QIfNB-ct-14" value="" style="endArrow=classic;html=1;rounded=0;entryX=0;entryY=0.25;entryDx=0;entryDy=0;exitX=0.568;exitY=0.001;exitDx=0;exitDy=0;exitPerimeter=0;" edge="1" parent="1" target="ZDsWqtvo9uj6QIfNB-ct-1">
          <mxGeometry width="50" height="50" relative="1" as="geometry">
            <mxPoint x="201" y="130" as="sourcePoint" />
            <mxPoint x="310" y="110" as="targetPoint" />
            <Array as="points">
              <mxPoint x="200" y="63" />
            </Array>
          </mxGeometry>
        </mxCell>
        <mxCell id="ZDsWqtvo9uj6QIfNB-ct-15" value="" style="endArrow=classic;html=1;rounded=0;entryX=1;entryY=0.5;entryDx=0;entryDy=0;exitX=0.089;exitY=1.006;exitDx=0;exitDy=0;exitPerimeter=0;" edge="1" parent="1" source="ZDsWqtvo9uj6QIfNB-ct-37" target="ZDsWqtvo9uj6QIfNB-ct-2">
          <mxGeometry width="50" height="50" relative="1" as="geometry">
            <mxPoint x="675" y="110" as="sourcePoint" />
            <mxPoint x="370" y="73" as="targetPoint" />
            <Array as="points">
              <mxPoint x="646" y="235" />
            </Array>
          </mxGeometry>
        </mxCell>
        <mxCell id="ZDsWqtvo9uj6QIfNB-ct-16" value="" style="endArrow=classic;html=1;rounded=0;exitX=1;exitY=0.5;exitDx=0;exitDy=0;entryX=0;entryY=0.5;entryDx=0;entryDy=0;" edge="1" parent="1" source="ZDsWqtvo9uj6QIfNB-ct-1">
          <mxGeometry width="50" height="50" relative="1" as="geometry">
            <mxPoint x="530" y="150" as="sourcePoint" />
            <mxPoint x="630" y="85" as="targetPoint" />
          </mxGeometry>
        </mxCell>
        <mxCell id="ZDsWqtvo9uj6QIfNB-ct-17" value="" style="endArrow=classic;html=1;rounded=0;exitX=0.5;exitY=1;exitDx=0;exitDy=0;entryX=0;entryY=0.75;entryDx=0;entryDy=0;" edge="1" parent="1" target="ZDsWqtvo9uj6QIfNB-ct-2">
          <mxGeometry width="50" height="50" relative="1" as="geometry">
            <mxPoint x="195" y="180" as="sourcePoint" />
            <mxPoint x="640" y="95" as="targetPoint" />
            <Array as="points">
              <mxPoint x="195" y="253" />
            </Array>
          </mxGeometry>
        </mxCell>
        <mxCell id="ZDsWqtvo9uj6QIfNB-ct-18" value="" style="endArrow=classic;html=1;rounded=0;exitX=0.469;exitY=1;exitDx=0;exitDy=0;exitPerimeter=0;" edge="1" parent="1" source="ZDsWqtvo9uj6QIfNB-ct-1">
          <mxGeometry width="50" height="50" relative="1" as="geometry">
            <mxPoint x="420" y="240" as="sourcePoint" />
            <mxPoint x="435" y="200" as="targetPoint" />
          </mxGeometry>
        </mxCell>
        <mxCell id="ZDsWqtvo9uj6QIfNB-ct-19" value="" style="endArrow=classic;html=1;rounded=0;" edge="1" parent="1" target="ZDsWqtvo9uj6QIfNB-ct-3">
          <mxGeometry width="50" height="50" relative="1" as="geometry">
            <mxPoint x="440" y="270" as="sourcePoint" />
            <mxPoint x="445" y="210" as="targetPoint" />
          </mxGeometry>
        </mxCell>
        <mxCell id="ZDsWqtvo9uj6QIfNB-ct-20" value="" style="endArrow=classic;html=1;rounded=0;" edge="1" parent="1">
          <mxGeometry width="50" height="50" relative="1" as="geometry">
            <mxPoint x="440" y="400" as="sourcePoint" />
            <mxPoint x="440" y="450" as="targetPoint" />
          </mxGeometry>
        </mxCell>
        <mxCell id="ZDsWqtvo9uj6QIfNB-ct-21" value="" style="endArrow=classic;html=1;rounded=0;entryX=0.5;entryY=0;entryDx=0;entryDy=0;exitX=0.5;exitY=1;exitDx=0;exitDy=0;" edge="1" parent="1" source="ZDsWqtvo9uj6QIfNB-ct-4" target="ZDsWqtvo9uj6QIfNB-ct-5">
          <mxGeometry width="50" height="50" relative="1" as="geometry">
            <mxPoint x="450" y="410" as="sourcePoint" />
            <mxPoint x="450" y="460" as="targetPoint" />
          </mxGeometry>
        </mxCell>
        <mxCell id="ZDsWqtvo9uj6QIfNB-ct-22" value="User Data" style="text;html=1;align=center;verticalAlign=middle;whiteSpace=wrap;rounded=0;" vertex="1" parent="1">
          <mxGeometry x="560" y="60" width="60" height="30" as="geometry" />
        </mxCell>
        <mxCell id="ZDsWqtvo9uj6QIfNB-ct-23" value="&lt;p style=&quot;margin: 4px 0px 0px; text-align: center;&quot;&gt;&lt;b style=&quot;&quot;&gt;6.0&lt;/b&gt;&lt;/p&gt;&lt;hr size=&quot;1&quot; style=&quot;border-style:solid;&quot;&gt;&lt;p style=&quot;margin:0px;margin-left:8px;&quot;&gt;Add Rooms&lt;/p&gt;&lt;p style=&quot;margin:0px;margin-left:8px;&quot;&gt;&lt;br&gt;&lt;/p&gt;" style="verticalAlign=top;align=left;overflow=fill;html=1;whiteSpace=wrap;rounded=1;" vertex="1" parent="1">
          <mxGeometry x="650" y="440" width="160" height="70" as="geometry" />
        </mxCell>
        <mxCell id="ZDsWqtvo9uj6QIfNB-ct-24" value="" style="endArrow=classic;html=1;rounded=0;exitX=0.364;exitY=0;exitDx=0;exitDy=0;exitPerimeter=0;" edge="1" parent="1" source="ZDsWqtvo9uj6QIfNB-ct-6">
          <mxGeometry width="50" height="50" relative="1" as="geometry">
            <mxPoint x="720" y="568.7300000000001" as="sourcePoint" />
            <mxPoint x="720" y="510" as="targetPoint" />
          </mxGeometry>
        </mxCell>
        <mxCell id="ZDsWqtvo9uj6QIfNB-ct-25" value="" style="endArrow=classic;html=1;rounded=0;" edge="1" parent="1">
          <mxGeometry width="50" height="50" relative="1" as="geometry">
            <mxPoint x="700" y="440" as="sourcePoint" />
            <mxPoint x="699" y="390" as="targetPoint" />
          </mxGeometry>
        </mxCell>
        <mxCell id="ZDsWqtvo9uj6QIfNB-ct-26" value="" style="endArrow=classic;html=1;rounded=0;entryX=1;entryY=0.5;entryDx=0;entryDy=0;" edge="1" parent="1" target="ZDsWqtvo9uj6QIfNB-ct-3">
          <mxGeometry width="50" height="50" relative="1" as="geometry">
            <mxPoint x="650" y="365" as="sourcePoint" />
            <mxPoint x="450" y="460" as="targetPoint" />
          </mxGeometry>
        </mxCell>
        <mxCell id="ZDsWqtvo9uj6QIfNB-ct-27" value="" style="endArrow=classic;html=1;rounded=0;exitX=0;exitY=0.55;exitDx=0;exitDy=0;entryX=1;entryY=0.5;entryDx=0;entryDy=0;exitPerimeter=0;" edge="1" parent="1" source="ZDsWqtvo9uj6QIfNB-ct-6" target="ZDsWqtvo9uj6QIfNB-ct-5">
          <mxGeometry width="50" height="50" relative="1" as="geometry">
            <mxPoint x="690" y="594" as="sourcePoint" />
            <mxPoint x="520" y="611" as="targetPoint" />
            <Array as="points" />
          </mxGeometry>
        </mxCell>
        <mxCell id="ZDsWqtvo9uj6QIfNB-ct-28" value="" style="endArrow=classic;html=1;rounded=0;exitX=-0.001;exitY=0.895;exitDx=0;exitDy=0;exitPerimeter=0;" edge="1" parent="1" source="ZDsWqtvo9uj6QIfNB-ct-6">
          <mxGeometry width="50" height="50" relative="1" as="geometry">
            <mxPoint x="700" y="604" as="sourcePoint" />
            <mxPoint x="520" y="659" as="targetPoint" />
          </mxGeometry>
        </mxCell>
        <mxCell id="ZDsWqtvo9uj6QIfNB-ct-29" value="New Rooms" style="text;html=1;align=center;verticalAlign=middle;whiteSpace=wrap;rounded=0;" vertex="1" parent="1">
          <mxGeometry x="730" y="530" width="80" height="30" as="geometry" />
        </mxCell>
        <mxCell id="ZDsWqtvo9uj6QIfNB-ct-30" value="Room Details&amp;nbsp;" style="text;html=1;align=center;verticalAlign=middle;whiteSpace=wrap;rounded=0;" vertex="1" parent="1">
          <mxGeometry x="545" y="360" width="90" height="30" as="geometry" />
        </mxCell>
        <mxCell id="ZDsWqtvo9uj6QIfNB-ct-31" value="User" style="html=1;whiteSpace=wrap;" vertex="1" parent="1">
          <mxGeometry x="150" y="130" width="90" height="50" as="geometry" />
        </mxCell>
        <mxCell id="ZDsWqtvo9uj6QIfNB-ct-32" value="" style="endArrow=classic;html=1;rounded=0;entryX=0.667;entryY=0.667;entryDx=0;entryDy=0;exitX=0;exitY=0.5;exitDx=0;exitDy=0;entryPerimeter=0;" edge="1" parent="1" source="ZDsWqtvo9uj6QIfNB-ct-5" target="ZDsWqtvo9uj6QIfNB-ct-42">
          <mxGeometry width="50" height="50" relative="1" as="geometry">
            <mxPoint x="450" y="530" as="sourcePoint" />
            <mxPoint x="270" y="610" as="targetPoint" />
          </mxGeometry>
        </mxCell>
        <mxCell id="ZDsWqtvo9uj6QIfNB-ct-33" value="&lt;p style=&quot;margin: 4px 0px 0px; text-align: center;&quot;&gt;&lt;b style=&quot;&quot;&gt;7.0&lt;/b&gt;&lt;/p&gt;&lt;hr size=&quot;1&quot; style=&quot;border-style:solid;&quot;&gt;&lt;p style=&quot;margin:0px;margin-left:8px;&quot;&gt;Add Users&lt;/p&gt;&lt;p style=&quot;margin:0px;margin-left:8px;&quot;&gt;&lt;br&gt;&lt;/p&gt;" style="verticalAlign=top;align=left;overflow=fill;html=1;whiteSpace=wrap;rounded=1;" vertex="1" parent="1">
          <mxGeometry x="840" y="440" width="160" height="70" as="geometry" />
        </mxCell>
        <mxCell id="ZDsWqtvo9uj6QIfNB-ct-34" value="" style="endArrow=classic;html=1;rounded=0;exitX=1;exitY=0.5;exitDx=0;exitDy=0;entryX=0.5;entryY=1;entryDx=0;entryDy=0;" edge="1" parent="1" source="ZDsWqtvo9uj6QIfNB-ct-6" target="ZDsWqtvo9uj6QIfNB-ct-33">
          <mxGeometry width="50" height="50" relative="1" as="geometry">
            <mxPoint x="730" y="580" as="sourcePoint" />
            <mxPoint x="730" y="520" as="targetPoint" />
            <Array as="points">
              <mxPoint x="920" y="620" />
            </Array>
          </mxGeometry>
        </mxCell>
        <mxCell id="ZDsWqtvo9uj6QIfNB-ct-35" value="" style="endArrow=classic;html=1;rounded=0;exitX=0.5;exitY=0;exitDx=0;exitDy=0;entryX=0.891;entryY=1.002;entryDx=0;entryDy=0;entryPerimeter=0;" edge="1" parent="1" source="ZDsWqtvo9uj6QIfNB-ct-33" target="ZDsWqtvo9uj6QIfNB-ct-37">
          <mxGeometry width="50" height="50" relative="1" as="geometry">
            <mxPoint x="730" y="580" as="sourcePoint" />
            <mxPoint x="790" y="140" as="targetPoint" />
            <Array as="points">
              <mxPoint x="920" y="170" />
              <mxPoint x="790" y="170" />
            </Array>
          </mxGeometry>
        </mxCell>
        <mxCell id="ZDsWqtvo9uj6QIfNB-ct-36" value="New User" style="text;html=1;align=center;verticalAlign=middle;whiteSpace=wrap;rounded=0;" vertex="1" parent="1">
          <mxGeometry x="800" y="180" width="100" height="30" as="geometry" />
        </mxCell>
        <mxCell id="ZDsWqtvo9uj6QIfNB-ct-37" value="D" style="html=1;dashed=0;whiteSpace=wrap;shape=mxgraph.dfd.dataStoreID;align=left;spacingLeft=3;points=[[0,0],[0.5,0],[1,0],[0,0.5],[1,0.5],[0,1],[0.5,1],[1,1]];" vertex="1" parent="1">
          <mxGeometry x="630" y="50" width="180" height="70" as="geometry" />
        </mxCell>
        <mxCell id="ZDsWqtvo9uj6QIfNB-ct-38" value="users Table&lt;div&gt;MySql&lt;/div&gt;" style="text;html=1;align=center;verticalAlign=middle;whiteSpace=wrap;rounded=0;" vertex="1" parent="1">
          <mxGeometry x="690" y="70" width="60" height="30" as="geometry" />
        </mxCell>
        <mxCell id="ZDsWqtvo9uj6QIfNB-ct-39" value="D" style="html=1;dashed=0;whiteSpace=wrap;shape=mxgraph.dfd.dataStoreID;align=left;spacingLeft=3;points=[[0,0],[0.5,0],[1,0],[0,0.5],[1,0.5],[0,1],[0.5,1],[1,1]];" vertex="1" parent="1">
          <mxGeometry x="650" y="320" width="180" height="70" as="geometry" />
        </mxCell>
        <mxCell id="ZDsWqtvo9uj6QIfNB-ct-40" value="rooms Table&lt;div&gt;MySql&lt;/div&gt;" style="text;html=1;align=center;verticalAlign=middle;whiteSpace=wrap;rounded=0;" vertex="1" parent="1">
          <mxGeometry x="700" y="330" width="60" height="30" as="geometry" />
        </mxCell>
        <mxCell id="ZDsWqtvo9uj6QIfNB-ct-41" value="guests Table&lt;div&gt;MySql&lt;/div&gt;" style="html=1;dashed=0;whiteSpace=wrap;shape=mxgraph.dfd.dataStoreID;align=center;spacingLeft=3;points=[[0,0],[0.5,0],[1,0],[0,0.5],[1,0.5],[0,1],[0.5,1],[1,1]];direction=west;" vertex="1" parent="1">
          <mxGeometry x="90" y="585" width="180" height="70" as="geometry" />
        </mxCell>
        <mxCell id="ZDsWqtvo9uj6QIfNB-ct-42" value="D" style="text;html=1;align=center;verticalAlign=middle;whiteSpace=wrap;rounded=0;" vertex="1" parent="1">
          <mxGeometry x="230" y="605" width="60" height="30" as="geometry" />
        </mxCell>
      </root>
    </mxGraphModel>
  </diagram>
</mxfile>
